<svg xmlns="http://www.w3.org/2000/svg" xmlns:ns1="http://sozi.baierouge.fr" xmlns:svg="http://www.w3.org/2000/svg" xmlns:xlink="http://www.w3.org/1999/xlink" id="svg8145" version="1.1" viewBox="0 0 676.23 408.42"><defs id="defs8148"><radialGradient id="radialGradient22276" cx="1143" cy="629.84" r="184.27" gradientTransform="scale(1.0677 .93656)" gradientUnits="userSpaceOnUse"><stop id="stop18198" offset="0" style="stop-color:#fff;stop-opacity:0"/><stop id="stop19932" offset=".5" style="stop-color:#3f3f3f;stop-opacity:.070588"/><stop id="stop19926" offset=".78" style="stop-color:#000;stop-opacity:.3299"/><stop id="stop19928" offset=".93" style="stop-color:#000;stop-opacity:.52157"/><stop id="stop18200" offset="1" style="stop-color:#000;stop-opacity:.65098"/></radialGradient><radialGradient id="radialGradient2089" cx="429.06" cy="193.36" r="115.33" gradientTransform="matrix(1.3262 .75667 -.23767 .41658 -86.795 -211.57)" gradientUnits="userSpaceOnUse"><stop id="stop2091" offset="0" style="stop-color:#b29b7a"/><stop id="stop2825" offset=".75" style="stop-color:#b29b7a"/><stop id="stop2087" offset="1" style="stop-color:#b29b7a;stop-opacity:0"/></radialGradient><radialGradient id="radialGradient2834" cx="389.15" cy="296.44" r="145.3" gradientTransform="matrix(1.2618 .69454 -.095713 .17388 -73.927 -49.291)" gradientUnits="userSpaceOnUse"><stop id="stop2830" offset="0" style="stop-color:#c4a361;stop-opacity:0"/><stop id="stop2836" offset=".5" style="stop-color:#c4a361"/><stop id="stop2832" offset="1" style="stop-color:#c4a361;stop-opacity:0"/></radialGradient><linearGradient id="linearGradient2849" x1="450.34" x2="434.04" y1="174.51" y2="202.85" gradientUnits="userSpaceOnUse"><stop id="stop2840" offset="0" style="stop-color:#797265"/><stop id="stop2842" offset="1" style="stop-color:#797265;stop-opacity:0"/></linearGradient><radialGradient id="radialGradient2857" cx="334.72" cy="404.74" r="134.42" gradientTransform="matrix(1.4233 .83556 -.10251 .17462 -104.37 22.232)" gradientUnits="userSpaceOnUse"><stop id="stop2853" offset="0" style="stop-color:#ccb986;stop-opacity:0"/><stop id="stop2859" offset=".5" style="stop-color:#c3ad70"/><stop id="stop2855" offset="1" style="stop-color:#ccb986;stop-opacity:0"/></radialGradient><radialGradient id="radialGradient2867" cx="335.28" cy="342.66" r="128.34" gradientTransform="matrix(1.3654 .81258 -.23374 .39276 -33.913 -36.513)" gradientUnits="userSpaceOnUse"><stop id="stop2863" offset="0" style="stop-color:#ac9877;stop-opacity:0"/><stop id="stop2865" offset="1" style="stop-color:#ac9877"/></radialGradient></defs><g id="g2870" transform="translate(-26.472 -101.44)"><path id="path2093" d="m1417 589.88c0 95.227-88.019 172.42-196.6 172.42s-196.6-77.197-196.6-172.42c0-95.227 88.019-172.42 196.6-172.42s196.6 77.197 196.6 172.42z" transform="matrix(.75728 .43721 -.45431 .78689 -286.12 -691.88)" style="fill:#e7c278"/><path id="path20317" d="m202.72 299.45c5.67 123.09 145.68 204.42 256.68 147.82-94.19-28.85-186.54-81.5-256.68-147.82z" style="fill-rule:evenodd;fill:url(#radialGradient2867)"/><path id="rect9686" d="m377.88 147.06c63.94 9.47 100.84 40.68 125.78 72.64 14.47 17.98 27.19 45.1 30.96 67.94-80.4-14.99-172.49-64.27-230.66-133.48 22.8-7.38 47.95-10.63 73.92-7.1z" style="fill:url(#radialGradient2089)"/><path id="path11205" d="m376.8 146.93c34.92 39.03 83.75 65.97 128.65 75.07-36.83-47.57-81.52-69.49-128.65-75.07z" style="fill-rule:evenodd;fill:url(#linearGradient2849)"/><path id="rect17282" d="m202.58 285.35c77.22 71.76 165.62 125.7 268.75 155.13-3.57 2.57-7.57 4.51-11.61 6.62-96.05-28.96-183.9-79.62-257.06-148.23-0.27-5.58-0.2-8.54-0.08-13.52z" style="fill:url(#radialGradient2857)"/><path id="rect12729" d="m248.89 186.52c66.97 74.02 197.13 152.33 285.13 164.75-0.59 2.45-1.24 4.86-1.89 7.28-88.66-12.24-221.36-91.46-288.71-166.69 1.81-1.79 3.59-3.59 5.47-5.34z" style="fill:url(#radialGradient2834)"/></g><g id="g1346" transform="translate(-26.472 -101.44)"><path id="path8162" d="m1417 589.88c0 95.227-88.019 172.42-196.6 172.42s-196.6-77.197-196.6-172.42c0-95.227 88.019-172.42 196.6-172.42s196.6 77.197 196.6 172.42z" transform="matrix(.75728 .43721 -.45431 .78689 -286.12 -691.88)" style="fill:url(#radialGradient22276)"/></g><g id="g16666" transform="matrix(.77891 .4497 -.4497 .77891 -361.89 -815.67)"><path id="path30933" d="m1073.3 517.75c-154.94 12.37-263.8 41.37-263.8 75.13 0 44.98 193.3 81.5 431.5 81.5s431.5-36.52 431.5-81.5c0-32.92-103.7-61.24-252.5-74.1 0.3 0.57 0.5 1.18 0.8 1.75 143.2 12.75 242.7 40.19 242.7 72.06 0 44-189.1 79.72-422 79.72s-422-35.72-422-79.72c0-32.64 104.18-60.68 253-73 0.3-0.6 0.5-1.24 0.8-1.84z" style="fill:#ada293"/><path id="path31697" d="m1072.3 520.06c-147.5 12.31-250.68 40.13-250.68 72.53 0 43.78 188.08 79.32 419.88 79.32s419.9-35.54 419.9-79.32c0-31.63-98.5-58.89-240.4-71.62 1.4 2.98 2.7 5.97 4 9.03 116.5 12.21 195.4 35.66 195.4 62.59 0 39.51-169.7 71.57-378.9 71.57s-378.91-32.06-378.91-71.57c0-27.7 83.66-51.7 205.71-63.59 1.2-3.04 2.6-6 4-8.94z" style="fill:#ada393"/><path id="path31705" d="m1061.4 550.09c-66 9.99-108.37 25.3-108.37 42.5 0 30.08 129.27 54.47 288.47 54.47s288.5-24.39 288.5-54.47c0-16.28-38.1-30.85-98.2-40.84 1 3.96 1.9 7.96 2.5 12.03 33.3 7.93 53.3 17.92 53.3 28.81 0 25.66-110.3 46.47-246.1 46.47s-246.06-20.81-246.06-46.47c0-11.95 24.16-22.82 63.46-31.06 0.7-3.86 1.5-7.68 2.5-11.44z" style="fill-opacity:.72973;fill:#343423"/><path id="path31701" d="m1067.4 530.84c-116.74 11.78-196.31 35.02-196.31 61.75 0 38.62 165.91 69.97 370.41 69.97s370.4-31.35 370.4-69.97c0-25.93-75-48.54-186.1-60.62 2.5 6.41 4.4 13.04 6 19.78 60.1 9.99 98.2 24.56 98.2 40.84 0 30.08-129.3 54.47-288.5 54.47s-288.47-24.39-288.47-54.47c0-17.2 42.37-32.51 108.37-42.5 1.7-6.57 3.6-13.03 6-19.25z" style="fill:#d8d4c1"/></g><metadata id="metadata43"/></svg>